<svg width="20" height="20" viewBox="0 0 20 20" fill="none" xmlns="http://www.w3.org/2000/svg">
<path d="M12.5 18.3333H3.33335C2.41669 18.3333 1.66669 17.5833 1.66669 16.6667V7.49999C1.66669 6.99999 2.00002 6.66666 2.50002 6.66666C3.00002 6.66666 3.33335 6.99999 3.33335 7.49999V16.6667H12.5C13 16.6667 13.3334 17 13.3334 17.5C13.3334 18 13 18.3333 12.5 18.3333Z" fill="#FAFAFA"/>
<path d="M16.6667 15H6.66667C5.75 15 5 14.25 5 13.3333V3.33332C5 2.41666 5.75 1.66666 6.66667 1.66666H16.6667C17.5833 1.66666 18.3333 2.41666 18.3333 3.33332V13.3333C18.3333 14.25 17.5833 15 16.6667 15ZM7.25 2.91666C6.69771 2.91666 6.25 3.36437 6.25 3.91666V12.75C6.25 13.3023 6.69772 13.75 7.25 13.75H16.0833C16.6356 13.75 17.0833 13.3023 17.0833 12.75V3.91666C17.0833 3.36437 16.6356 2.91666 16.0833 2.91666H7.25Z" fill="#FAFAFA"/>
<path d="M10.8333 10.8333C10.5833 10.8333 10.4166 10.75 10.25 10.5833L8.58331 8.91668C8.24998 8.58334 8.24998 8.08334 8.58331 7.75001C8.91665 7.41668 9.41665 7.41668 9.74998 7.75001L10.8333 8.83334L13.5833 6.08334C13.9166 5.75001 14.4166 5.75001 14.75 6.08334C15.0833 6.41668 15.0833 6.91668 14.75 7.25001L11.4166 10.5833C11.25 10.75 11.0833 10.8333 10.8333 10.8333Z" fill="#FAFAFA"/>
</svg>
