<svg width="20" height="20" viewBox="0 0 20 20" fill="none" xmlns="http://www.w3.org/2000/svg">
<path d="M10.13 9.07649C10.0482 9.06831 9.95003 9.06831 9.86003 9.07649C7.91276 9.01103 6.36639 7.41558 6.36639 5.45194C6.36639 3.4474 7.98639 1.81921 9.99912 1.81921C12.0037 1.81921 13.6318 3.4474 13.6318 5.45194C13.6237 7.41558 12.0773 9.01103 10.13 9.07649Z" stroke="#FAFAFA" stroke-width="1.5" stroke-linecap="round" stroke-linejoin="round"/>
<path d="M6.03914 12.0956C4.05914 13.421 4.05914 15.581 6.03914 16.8983C8.28914 18.4038 11.9791 18.4038 14.2291 16.8983C16.2091 15.5729 16.2091 13.4129 14.2291 12.0956C11.9873 10.5983 8.29732 10.5983 6.03914 12.0956Z" stroke="#FAFAFA" stroke-width="1.5" stroke-linecap="round" stroke-linejoin="round"/>
</svg>
